<?xml version="1.0" encoding="UTF-8" standalone="no"?>
<!-- Created with Inkscape (http://www.inkscape.org/) -->

<svg
   xmlns:dc="http://purl.org/dc/elements/1.1/"
   xmlns:cc="http://creativecommons.org/ns#"
   xmlns:rdf="http://www.w3.org/1999/02/22-rdf-syntax-ns#"
   xmlns:svg="http://www.w3.org/2000/svg"
   xmlns="http://www.w3.org/2000/svg"
   xmlns:sodipodi="http://sodipodi.sourceforge.net/DTD/sodipodi-0.dtd"
   xmlns:inkscape="http://www.inkscape.org/namespaces/inkscape"
   version="1.1"
   id="svg2"
   width="704"
   height="706"
   viewBox="0 0 704 706"
   sodipodi:docname="logo.svg"
   inkscape:version="0.92.4 5da689c313, 2019-01-14">
  <metadata
     id="metadata8">
    <rdf:RDF>
      <cc:Work
         rdf:about="">
        <dc:format>image/svg+xml</dc:format>
        <dc:type
           rdf:resource="http://purl.org/dc/dcmitype/StillImage" />
        <dc:title />
      </cc:Work>
    </rdf:RDF>
  </metadata>
  <defs
     id="defs6" />
  <sodipodi:namedview
     pagecolor="#ffffff"
     bordercolor="#666666"
     borderopacity="1"
     objecttolerance="10"
     gridtolerance="10"
     guidetolerance="10"
     inkscape:pageopacity="0"
     inkscape:pageshadow="2"
     inkscape:window-width="1920"
     inkscape:window-height="994"
     id="namedview4"
     showgrid="false"
     inkscape:zoom="0.94547989"
     inkscape:cx="27.066198"
     inkscape:cy="338.7174"
     inkscape:window-x="0"
     inkscape:window-y="0"
     inkscape:window-maximized="1"
     inkscape:current-layer="svg2" />
  <path
     style="fill:#0a2390;stroke-width:1.06780612;fill-opacity:1"
     d="M 324.73204,704.79212 C 276.68199,700.74635 226.95019,685.36213 184.08332,661.28333 152.33883,643.4521 128.77619,624.99049 101.52354,596.59679 62.248147,555.67699 32.672884,503.38709 17.833933,448.63124 8.752529,415.12078 5.6979979,391.50084 5.7132393,354.9048 5.7248644,326.91407 6.4578022,317.55738 10.563962,292.97814 19.783769,237.78895 45.42016,180.84768 81.751972,134.86166 92.931165,120.7119 123.79982,89.977798 137.84178,79.016346 170.10257,53.832879 206.13665,34.206609 243.81017,21.299747 265.41081,13.899421 300.63397,6.5339799 323.13316,4.7126856 336.35604,3.6423021 368.3867,3.6183609 383.28138,4.6677335 441.02704,8.7360593 502.77134,30.91898 552.50188,65.463709 c 22.71572,15.779194 55.99165,46.561371 71.99645,66.600911 64.22146,80.41142 90.2387,179.02929 74.0467,280.67271 -7.77835,48.82766 -28.18925,99.57159 -56.84982,141.33543 -23.92729,34.86655 -61.54701,71.81325 -96.14283,94.42286 -21.12219,13.8041 -46.36817,26.72633 -68.56515,35.09525 -22.96632,8.65901 -58.86385,17.41844 -80.92793,19.74741 -3.51336,0.37084 -7.58574,0.89588 -9.04973,1.16673 -5.52698,1.02255 -51.05042,1.23244 -62.27753,0.28712 z m 67.76181,-19.68698 c 105.89411,-12.42302 199.0634,-75.44872 251.49009,-170.12407 5.83213,-10.53202 7.85019,-14.72181 14.6154,-30.34383 21.88632,-50.53919 31.01102,-114.72839 24.07761,-169.37793 -4.67887,-36.879 -13.80425,-68.62443 -29.40898,-102.30813 C 622.85109,147.29469 568.95088,91.339877 504.06957,58.065565 431.65953,20.930157 347.87239,12.145813 268.33834,33.351224 213.92071,47.860083 162.57567,77.688771 121.20776,118.8261 37.899812,201.66976 4.5557555,324.29151 34.288537,438.46884 c 10.744619,41.26056 25.868114,73.30044 53.35586,113.03703 6.008876,8.6865 21.709803,26.92932 32.760693,38.06448 71.69075,72.2374 171.61394,107.32205 272.08876,95.53479 z m -58.41196,-26.33839 c -1.6452,-0.66678 -2.41727,-1.90304 -2.46712,-3.95046 -0.15428,-6.33579 -1.14401,-7.18309 -9.81552,-8.40303 l -8.08615,-1.13759 -2.8397,5.23972 c -2.34715,4.33089 -3.23472,5.13274 -5.11719,4.62301 -1.25261,-0.33918 -2.65217,-0.62357 -3.11011,-0.63197 -0.45794,-0.009 0.2957,-2.06278 1.67476,-4.56531 1.37906,-2.50253 5.98937,-10.91394 10.24512,-18.69203 l 7.73775,-14.14197 3.376,0.64842 c 1.85681,0.35662 3.57799,0.82282 3.82484,1.03599 0.5972,0.51576 8.5014,36.80872 8.53913,39.20835 0.0327,2.08167 -0.47515,2.17998 -3.96181,0.76687 z m -5.57487,-18.66161 c 10e-4,-1.72949 -1.973,-12.0318 -2.77325,-14.47131 -0.31107,-0.94827 -2.1538,1.37003 -4.67952,5.8872 -2.29151,4.09829 -4.18694,7.77937 -4.21206,8.1802 -0.0536,0.85412 3.32849,1.59998 8.20392,1.80926 2.38008,0.10218 3.46011,-0.33638 3.46091,-1.40535 z m 18.59954,7.19115 c 0.29695,-6.92146 0.54845,-15.86549 0.55888,-19.87564 l 0.019,-7.29118 4.52417,0.33282 4.52417,0.33282 7.43867,14.19715 c 4.09129,7.80843 7.79913,14.19743 8.23966,14.19778 0.44054,3.3e-4 0.80591,-6.50604 0.81194,-14.45861 l 0.011,-14.4592 2.66143,0.002 2.66142,0.002 -0.015,19.81446 -0.015,19.81448 -3.70446,-0.003 c -4.17954,-0.003 -4.45838,-0.39787 -15.44123,-21.85484 l -5.84649,-11.42215 -0.30577,16.63009 -0.30577,16.63011 -3.17821,-0.002 -3.17821,-0.002 z m 43.94342,9.97726 c -0.36923,-1.95127 1.94958,-6.77223 8.87242,-18.44628 5.15478,-8.69255 9.1749,-16.00351 8.93364,-16.24661 -0.4116,-0.41474 -14.2946,1.52462 -19.2517,2.68933 -1.77101,0.41611 -2.36847,-0.0632 -2.77824,-2.22881 -0.28713,-1.51741 -0.22918,-2.76712 0.12877,-2.77711 0.35794,-0.0107 6.99335,-1.13536 14.74534,-2.50079 7.75199,-1.36543 14.33968,-2.23559 14.6393,-1.93369 1.73328,1.74649 -0.47065,6.96305 -8.95554,21.19713 -5.2232,8.76234 -9.42043,16.00406 -9.32718,16.0927 0.0933,0.0887 5.41312,-0.73747 11.82191,-1.83581 6.40881,-1.09834 11.73927,-1.88968 11.84551,-1.75853 0.10624,0.13113 0.51532,1.29676 0.90913,2.59027 0.63094,2.0724 0.2353,2.43044 -3.32988,3.01343 -2.22525,0.36389 -9.12083,1.5899 -15.32353,2.72448 -6.20271,1.13458 -11.53694,2.06267 -11.85387,2.06242 -0.31692,-2.5e-4 -0.80117,-1.1892 -1.07608,-2.64213 z m -108.32716,-6.97698 c -3.84046,-1.01295 -6.87053,-2.39618 -6.81089,-3.10918 0.28242,-3.37657 0.53998,-3.63029 3.04195,-2.99646 2.82826,0.71647 2.48481,1.51616 8.60065,-20.02515 1.88293,-6.63209 1.58202,-9.31329 -1.04546,-9.3153 -1.72313,-10e-4 -2.12351,-1.89449 -0.81263,-3.84231 1.27953,-1.90117 16.39746,2.67325 15.96424,4.83051 -0.20916,1.04153 -1.41546,1.68746 -3.11205,1.66641 -2.6489,-0.0329 -2.94136,0.57801 -6.66385,13.91859 -2.14134,7.67413 -3.88054,14.25822 -3.86488,14.63134 0.0156,0.37311 1.02805,0.9422 2.24975,1.26463 1.39434,0.36798 2.08721,1.27914 1.86114,2.44746 -0.49627,2.56474 -1.48131,2.62018 -9.40797,0.52946 z m 152.80816,0.23428 c -1.33827,-1.34847 -0.41291,-4.29783 1.50638,-4.80121 2.0316,-0.53285 2.02044,-0.73327 -0.4985,-8.96149 -6.43112,-21.00744 -6.06983,-20.23423 -9.27878,-19.85877 -2.33916,0.27368 -2.92415,-0.0918 -2.92284,-1.82598 10e-4,-1.74592 1.3848,-2.58449 7.10411,-4.30599 7.65877,-2.30529 8.86933,-2.16315 8.8669,1.04103 -10e-4,1.38744 -0.73359,2.07833 -2.20245,2.0772 -1.60332,-10e-4 -2.04663,0.50734 -1.63277,1.87309 0.31246,1.03114 2.25618,7.33759 4.3194,14.01435 2.06322,6.67677 3.75112,12.37574 3.7509,12.6644 -2.2e-4,0.28866 1.31713,0.37086 2.92743,0.18267 2.29054,-0.2677 2.99632,0.14262 3.24251,1.88508 0.26982,1.90982 -0.74875,2.53847 -7.14658,4.41085 -4.1037,1.20098 -7.71977,1.92313 -8.03571,1.60477 z M 251.32601,639.74847 c -4.37675,-0.55696 -17.69318,-5.82985 -18.21741,-7.21352 -0.34281,-0.90488 13.748,-34.42907 14.99965,-35.68642 0.62523,-0.62809 13.78266,5.12733 17.71155,7.74751 4.94451,3.2975 7.72344,9.21488 7.48203,15.93209 -0.44021,12.24906 -10.13385,20.72725 -21.97582,19.22034 z m 9.13918,-7.46629 c 3.32511,-1.97271 6.13715,-6.95463 7.00683,-12.41352 0.93828,-5.88954 -5.57293,-13.2388 -13.45802,-15.19022 -2.52665,-0.62529 -2.94736,-0.003 -8.33684,12.33727 -3.12175,7.14768 -5.36754,13.31206 -4.99068,13.69863 3.24954,3.33309 15.2058,4.28084 19.77871,1.56784 z m 228.99776,-4.49508 c -4.7998,-1.03404 -7.93683,-4.2669 -13.4005,-13.8099 -2.54712,-4.44889 -5.65397,-9.83462 -6.9041,-11.96826 l -2.27297,-3.87937 2.508,-1.65056 c 2.48516,-1.63553 2.55967,-1.56116 8.1848,8.1681 10.38705,17.96554 12.51047,19.86993 19.14468,17.16979 8.59591,-3.49853 8.49342,-7.97945 -0.53429,-23.36218 -3.7901,-6.45811 -6.89087,-12.04632 -6.89059,-12.41823 2.8e-4,-0.37191 1.1683,-1.21044 2.5956,-1.86339 2.50758,-1.14717 2.81203,-0.7982 9.02796,10.34805 8.40208,15.06639 9.19615,17.43351 7.61947,22.71341 -2.11255,7.07437 -11.39367,12.20799 -19.07806,10.55254 z M 182.18124,612.32668 c -7.66465,-4.37531 -11.15842,-12.97871 -7.84631,-19.32145 1.58208,-3.02968 19.00321,-23.21043 20.03584,-23.20963 0.43358,3.3e-4 1.56003,0.85984 2.50323,1.91001 1.59135,1.77184 1.5051,2.13829 -1.19733,5.08659 -7.88942,8.60717 -16.04947,18.7523 -16.6758,20.73247 -1.76878,5.59207 6.78923,13.0952 12.46546,10.92893 1.46327,-0.55843 6.87406,-5.86695 12.02397,-11.79669 5.1499,-5.92974 9.64541,-10.7658 9.99,-10.74681 0.34459,0.019 1.54549,0.73523 2.66866,1.5916 2.01355,1.53524 2.01351,1.59031 -0.003,3.93256 -1.12482,1.30654 -3.48356,4.06239 -5.24166,6.12413 -15.26846,17.90549 -19.45582,20.05845 -28.72308,14.76829 z m 330.69294,-19.48812 -11.8378,-15.846 3.29243,-2.84315 c 3.80139,-3.28267 2.50231,-3.61512 21.98996,5.62746 6.16196,2.92249 11.34292,5.17364 11.51322,5.00255 0.17032,-0.17109 -3.56101,-5.51975 -8.29184,-11.88595 -8.55889,-11.51754 -8.59111,-11.58533 -6.50196,-13.68401 2.08917,-2.09867 2.15879,-2.02887 14.05482,14.08892 12.34501,16.7261 12.87342,18.10033 7.60507,19.77818 -1.11642,0.35556 -8.48486,-2.48152 -18.0094,-6.93418 -8.86595,-4.14476 -16.36829,-7.53612 -16.67187,-7.53636 -0.30357,-2.3e-4 3.8405,5.86108 9.20906,13.02514 7.5069,10.01757 9.52254,13.4053 8.72831,14.66994 -0.56798,0.90439 -1.52982,1.81064 -2.13744,2.01391 -0.60762,0.20325 -6.43176,-6.76115 -12.94256,-15.47645 z m -182.19687,-7.05214 c -55.2119,-5.99717 -105.26913,-30.83007 -143.6629,-71.26976 -32.49197,-34.22338 -52.26372,-74.44436 -60.73553,-123.55218 -3.10619,-18.0054 -3.35743,-51.37975 -0.52475,-69.70584 9.08923,-58.80292 38.77606,-111.21051 83.44128,-147.30288 26.4026,-21.33499 60.05127,-37.9711 91.54415,-45.25997 17.43134,-4.0344 29.57716,-5.50041 48.9184,-5.9045 40.60448,-0.84835 77.22981,7.78983 112.29203,26.48433 21.84749,11.64868 36.94963,22.96765 55.42872,41.54354 70.91233,71.28383 87.84359,178.48883 42.55,269.41725 -20.05942,40.26998 -54.78909,76.14052 -95.09494,98.21883 -40.31034,22.08077 -89.75554,32.15404 -134.15646,27.33118 z m 56.42967,-9.89004 c 37.06364,-5.73136 71.02454,-20.16513 101.43587,-43.11143 12.07525,-9.11114 31.51151,-28.19994 39.5563,-38.84914 l 5.20266,-6.88698 -6.18489,6.95711 c -36.57147,41.13759 -82.1347,66.10144 -137.87599,75.54152 -13.84566,2.34483 -52.01584,2.65339 -66.536,0.53785 -52.44273,-7.64072 -100.92032,-32.57974 -134.85942,-69.37765 -3.8059,-4.12647 -8.46712,-9.19077 -10.35826,-11.254 -1.89115,-2.06322 -0.41991,0.10678 3.26942,4.82224 36.09544,46.13491 91.91005,76.72504 151.52391,83.04519 12.51173,1.32648 41.98838,0.5605 54.8264,-1.42471 z m 2.66956,-10.73447 c 90.39615,-16.84054 157.73226,-84.85393 173.80752,-175.55571 1.46241,-8.25138 1.90096,-16.48543 1.91089,-35.87881 0.0123,-23.28613 -0.20382,-26.21191 -2.88303,-39.09565 -13.90558,-66.86873 -54.55071,-120.94073 -112.97361,-150.29372 -19.83689,-9.96652 -34.93252,-15.09642 -58.15402,-19.76238 -16.26731,-3.26862 -55.24606,-3.62434 -71.35026,-0.65111 -46.80133,8.6406 -82.99975,27.46851 -115.40535,60.02585 -34.97787,35.14168 -55.47998,77.73331 -61.32252,127.39303 -1.59723,13.57601 -0.702,46.15518 1.62158,59.01295 6.21372,34.3841 19.75884,65.76435 40.23473,93.21248 8.62172,11.5575 32.21479,35.00585 42.91949,42.65621 31.09311,22.22141 61.08689,34.49051 97.71963,39.97268 13.21414,1.97752 50.98808,1.36497 63.87495,-1.03582 z m -92.05115,-45.02934 c -37.56858,-4.89088 -68.74047,-18.65403 -89.64273,-39.57942 -12.04949,-12.06282 -20.52209,-26.55989 -24.84179,-42.50563 -2.51978,-9.30148 -2.56036,-29.06942 -0.0782,-38.12848 13.09893,-47.80831 67.19562,-79.15995 131.7448,-76.35246 l 5.85494,0.25465 -7.45269,0.93078 c -23.71788,2.96218 -50.47279,15.10036 -66.05196,29.96649 -15.06737,14.37772 -21.15124,27.34664 -21.01813,44.80408 0.3043,39.91047 32.57409,70.74898 85.1417,81.36538 51.04574,10.30906 106.98918,5.00206 152.35856,-14.45328 27.21714,-11.67128 50.77355,-29.48784 65.60917,-49.6226 5.4397,-7.3827 5.52454,-6.00264 0.33225,5.4045 -13.58525,29.84597 -48.74042,58.70213 -95.12988,78.08477 -21.46044,8.9667 -44.37182,15.28245 -68.39659,18.85419 -15.66267,2.32857 -53.85866,2.87392 -68.42936,0.97703 z m 13.97834,-66.30708 c 0.24412,-0.21228 5.71559,-3.1735 12.15881,-6.5805 39.95258,-21.1258 61.69128,-43.17652 70.84997,-71.86695 4.30078,-13.4726 5.27279,-20.30349 4.85156,-34.09498 -0.94177,-30.83506 -13.44025,-61.16947 -34.24305,-83.10959 l -7.89929,-8.33114 11.45773,-28.18969 c 6.30175,-15.50431 11.58703,-28.36819 11.74504,-28.58641 0.7384,-1.01962 15.63924,10.89929 23.31234,18.64711 40.18893,40.58021 47.66014,100.85459 19.48633,157.20702 -15.75456,31.51181 -36.95575,51.80014 -71.83844,68.74527 -15.97239,7.759 -42.65234,18.56975 -39.881,16.15986 z m -13.92718,-1.24759 c 2e-4,-0.27057 3.47486,-2.24893 7.72146,-4.39636 19.62701,-9.92503 39.15804,-27.14389 45.36561,-39.99499 7.69346,-15.92728 9.84593,-36.92677 5.55357,-54.18037 -7.73984,-31.11104 -33.86436,-54.81174 -68.32142,-61.98254 -4.51232,-0.93905 -9.18254,-1.70811 -10.37826,-1.70903 -1.19571,-9.1e-4 -2.17361,-0.52839 -2.17312,-1.17217 4.8e-4,-0.64379 3.43519,-14.79703 7.63268,-31.45165 l 7.6318,-30.28112 4.89883,1.30727 c 7.59463,2.02665 24.27887,8.93469 33.10054,13.70513 27.48157,14.86105 50.41965,44.60617 58.47198,75.82393 3.32517,12.8912 4.05807,33.06907 1.63622,45.04728 -6.75618,33.41532 -30.82428,62.25851 -67.18043,80.50894 -5.82281,2.92299 -23.96005,9.56616 -23.95946,8.77568 z m 60.69024,-12.90483 c 35.74682,-19.06851 57.82331,-41.37761 74.11406,-74.89498 18.33924,-37.732 21.00822,-69.26027 9.64842,-113.97526 -0.63063,-2.48236 0.95808,-3.90943 20.84867,-18.72746 11.84223,-8.82218 23.11324,-17.13001 25.0467,-18.46184 l 3.51538,-2.42152 3.75234,12.06657 c 14.15803,45.52847 6.22629,96.35291 -21.58563,138.31475 -8.33204,12.57114 -26.42904,31.33885 -39.91071,41.38985 -16.14084,12.03349 -35.44623,22.93892 -56.26325,31.78253 -9.86328,4.19018 -28.20685,10.94286 -29.63489,10.90927 -0.39247,-0.009 4.31853,-2.70109 10.46891,-5.98191 z M 195.17402,201.03525 c 30.12913,-29.14803 68.45574,-49.5838 109.75709,-58.52253 34.15626,-7.39235 76.14219,-6.54533 108.35739,2.18596 41.5149,11.25179 79.87473,34.08235 107.30841,63.86658 3.25785,3.53697 7.47862,8.11896 9.3795,10.18219 1.90411,2.06674 1.14012,0.66871 -1.70129,-3.11322 -6.73588,-8.96546 -24.46332,-27.07414 -33.87981,-34.60841 -46.14573,-36.9219 -103.02732,-54.43405 -159.6482,-49.15092 -46.01813,4.29384 -85.53541,20.71508 -122.81215,51.03414 -10.07083,8.1911 -24.05875,22.69908 -32.22952,33.42776 -4.3217,5.67462 -4.25909,5.63598 1.73264,-1.06972 3.419,-3.8264 9.60016,-10.23072 13.73594,-14.23183 z M 153.96138,582.3303 c -9.02223,-2.34567 -15.46305,-11.52093 -13.90115,-19.80285 2.40002,-12.72603 15.74357,-22.50816 26.65739,-19.54249 12.63559,3.43352 17.79173,16.95683 10.72969,28.14145 -5.48149,8.68144 -15.25495,13.34383 -23.48593,11.20389 z m 9.45286,-6.59831 c 3.95279,-2.05267 10.56797,-9.52412 11.4094,-12.88623 1.0027,-4.00647 -0.32798,-7.9365 -3.90902,-11.54484 -2.85066,-2.87241 -3.71984,-3.15867 -8.26657,-2.72264 -6.14314,0.58912 -11.08761,3.97937 -14.62787,10.02983 -4.04334,6.91024 -2.9333,12.3885 3.35698,16.56726 3.71133,2.46551 7.98098,2.66295 12.03708,0.55662 z m 395.31558,0.56969 c -0.97347,-0.9809 -0.84999,-1.72893 0.54014,-3.272 1.70836,-1.89629 1.63833,-2.15064 -1.34613,-4.88893 -1.73153,-1.58872 -6.68691,-6.15554 -11.01195,-10.1485 -7.40031,-6.83209 -7.97731,-7.15661 -9.79182,-5.50704 -1.78721,1.62476 -2.05932,1.62064 -3.72368,-0.0565 -1.68492,-1.69776 -1.44506,-2.16579 3.89243,-7.59505 5.35396,-5.44602 5.80128,-5.68249 7.61704,-4.02671 1.74906,1.59495 1.77487,1.93022 0.27675,3.59317 -1.52011,1.68735 -1.11678,2.34598 5.04185,8.23306 14.56143,13.91937 15.1626,14.35246 17.1504,12.35559 1.66728,-1.67486 1.8996,-1.67394 3.57506,0.0143 1.68006,1.69285 1.46373,2.14154 -3.46529,7.18712 -5.51297,5.64336 -6.68717,6.19478 -8.7548,4.11138 z M 120.98509,548.85379 c -1.68762,-2.04902 -0.44081,-3.66498 5.96271,-7.72818 2.57802,-1.6358 4.68843,-3.34985 4.68981,-3.80898 0.001,-0.45914 -1.91276,-3.27641 -4.25367,-6.26061 -2.34093,-2.9842 -4.69939,-6.22393 -5.24101,-7.1994 -0.86181,-1.55211 -1.80243,-1.1944 -7.53257,2.86465 -6.20276,4.39383 -6.62582,4.53446 -8.02882,2.66876 -0.81458,-1.08322 -1.49606,-2.25351 -1.51442,-2.60063 -0.0322,-0.60737 7.58643,-6.20106 24.42265,-17.93158 7.925,-5.5217 7.95195,-5.53083 10.05685,-3.40987 1.1608,1.16965 1.89751,2.30806 1.6371,2.52977 -0.26039,0.22172 -3.89972,2.79569 -8.08738,5.71992 l -7.61395,5.31679 5.47506,7.5604 5.47505,7.56042 7.80431,-5.30488 c 7.5404,-5.12546 7.87464,-5.24075 9.88299,-3.40935 1.676,1.52833 1.81428,2.14294 0.71386,3.17274 -2.61432,2.44647 -30.67853,21.86904 -31.59819,21.86834 -0.50948,-3.9e-4 -1.52215,-0.72413 -2.25038,-1.60831 z m 448.71051,-7.56708 c -22.35783,-6.64434 -21.07642,-6.07871 -19.68513,-8.68942 0.63226,-1.18641 1.7459,-2.15666 2.47475,-2.15611 0.72886,5.7e-4 8.46715,2.16327 17.19621,4.80602 8.72906,2.64274 16.05606,4.61908 16.28226,4.39185 0.22619,-0.22722 -1.54452,-3.22879 -3.93492,-6.67018 -16.0705,-23.13628 -15.28196,-21.67826 -13.3369,-24.65991 0.97489,-1.49446 2.15333,-2.30391 2.61874,-1.79877 0.46541,0.50514 5.93329,8.59272 12.15084,17.97243 l 11.30464,17.05398 -2.33761,2.49961 c -1.28569,1.37478 -3.09243,2.45799 -4.01497,2.40712 -0.92255,-0.0509 -9.3456,-2.37135 -18.71791,-5.15662 z m 20.79414,-31.36913 c -9.0714,-5.35308 -16.64982,-9.8668 -16.84095,-10.03047 -0.72308,-0.61931 12.10288,-22.97308 13.18084,-22.97225 0.62158,4.8e-4 1.69916,0.57423 2.39463,1.275 0.97682,0.98426 0.18292,3.28302 -3.48965,10.1043 l -4.75413,8.83018 3.55275,2.21286 c 1.95399,1.21707 4.01426,2.2132 4.57835,2.21364 0.56408,4.3e-4 2.80176,-3.25118 4.97263,-7.22581 5.97455,-10.93874 5.39688,-10.30415 7.92899,-8.71047 2.17596,1.3695 2.13734,1.52037 -2.64497,10.33108 -2.66925,4.91771 -4.68027,9.10454 -4.46892,9.30406 0.21133,0.19953 2.87518,1.8356 5.91964,3.63572 l 5.53538,3.27292 2.03624,-3.42123 c 1.11994,-1.88169 3.36783,-5.93197 4.99531,-9.00065 2.54503,-4.79866 3.23637,-5.42981 4.94061,-4.51049 1.08984,0.58788 1.96228,1.65437 1.93877,2.36997 -0.0614,1.87032 -11.12248,21.46586 -12.29757,21.78617 -0.54147,0.1476 -8.40655,-4.11144 -17.47795,-9.46453 z m -500.845944,-9.84762 -6.933747,-13.95588 2.651209,-1.01181 c 2.422129,-0.92437 19.848532,1.71417 34.869692,5.27966 2.19528,0.52108 3.99157,0.74755 3.99176,0.50328 1.8e-4,-0.24428 -2.19083,-4.84192 -4.86892,-10.21697 -3.81973,-7.66645 -4.56371,-9.97061 -3.45174,-10.69044 0.77961,-0.50467 1.98325,-0.79727 2.67473,-0.65021 0.69149,0.14706 4.09243,5.92204 7.55767,12.83327 6.23512,12.43559 6.27717,12.58099 4.0548,14.02213 -1.94962,1.26426 -4.4908,0.98989 -19.27611,-2.08125 -9.36673,-1.94563 -17.633595,-3.56128 -18.370809,-3.59034 -0.795287,-0.0314 0.821954,4.2906 3.976922,10.62795 5.042807,10.1294 5.211337,10.73773 3.26448,11.78409 -1.12905,0.60681 -2.31234,1.1031 -2.629518,1.10285 -0.317167,-2.3e-4 -3.696866,-6.28059 -7.510419,-13.95633 z M 607.54877,475.69738 c -9.6578,-4.1789 -17.66797,-7.69116 -17.80037,-7.80504 -0.48545,-0.41756 4.21233,-11.95599 6.16948,-15.15307 3.90136,-6.37308 11.67256,-7.66515 17.03964,-2.83306 1.81027,1.62983 3.61215,4.45275 4.00417,6.27315 l 0.71277,3.30981 9.96064,-3.1161 c 5.47835,-1.71386 10.257,-2.81749 10.6192,-2.45252 0.3622,0.36497 -0.0524,1.93567 -0.92134,3.49044 -1.26542,2.2642 -3.47082,3.3886 -11.07978,5.64892 -9.14631,2.71701 -10.91078,3.99493 -11.17415,8.0929 -0.0417,0.64795 3.03713,2.51194 6.84173,4.14221 3.80461,1.63028 6.91729,3.18258 6.91709,3.44956 -8.4e-4,1.11946 -2.26791,4.62409 -2.96849,4.58895 -0.41852,-0.021 -8.66279,-3.45727 -18.32059,-7.63615 z m 3.70579,-9.42113 c 2.22023,-4.31155 2.04398,-7.76916 -0.53842,-10.56218 -2.62054,-2.83428 -7.52898,-3.07497 -9.73125,-0.47719 -1.74531,2.05877 -4.60142,8.71846 -3.95044,9.21138 0.82364,0.62365 11.07469,4.91674 11.82247,4.95119 0.42408,0.0195 1.50302,-1.3859 2.39764,-3.1232 z m -536.47088,0.24493 c -4.585972,-7.8868 -5.336577,-17.33403 -1.888112,-23.76372 4.746518,-8.84989 19.702546,-13.15766 29.466172,-8.48712 6.35277,3.03892 9.39176,8.71055 9.95173,18.57276 0.38653,6.8077 0.14668,8.63533 -1.32764,10.11638 -2.49187,2.50322 -6.40852,2.45226 -5.33779,-0.0694 0.43758,-1.03056 1.02259,-4.56763 1.30002,-7.86017 0.53718,-6.37504 -0.89017,-10.57986 -4.80241,-14.14741 -4.984707,-4.54552 -16.290624,-3.03994 -22.268801,2.96549 -2.977013,2.99055 -3.527421,4.31631 -3.530592,8.50412 -0.002,2.72868 0.714036,6.69336 1.591352,8.8104 1.462877,3.53001 1.870896,3.79388 4.921224,3.18253 1.829362,-0.36664 3.800486,-0.66626 4.380272,-0.66582 0.656732,5.1e-4 0.780042,-2.22029 0.327078,-5.89053 -0.702999,-5.69615 -0.643181,-5.8913 1.805126,-5.88941 2.259963,0.002 2.727852,0.82485 4.35197,7.65617 1.000865,4.20984 1.689631,7.74064 1.530595,7.84625 -0.57457,0.38146 -15.528471,3.76914 -16.634036,3.76828 -0.623433,-4.7e-4 -2.349708,-2.09243 -3.836158,-4.64877 z m 559.40668,-26.929 c 4.4e-4,-0.58988 0.53,-1.40098 1.17678,-1.80247 1.92576,-1.1954 5.17053,-9.30787 5.19846,-12.9971 0.0331,-4.37992 -1.8554,-8.574 -4.13127,-9.17465 -4.15627,-1.09692 -6.316,1.08503 -8.56138,8.64946 -3.17546,10.69774 -5.31937,13.04587 -11.90665,13.04081 -4.37299,-0.003 -5.75565,-0.50337 -7.93051,-2.868 -3.36084,-3.65406 -4.0577,-6.58059 -3.35872,-14.10529 0.83953,-9.03776 2.49545,-11.95189 6.78961,-11.9486 l 3.52516,0.003 -2.63524,4.97723 c -3.3267,6.28319 -3.54902,13.38404 -0.51479,16.44141 4.28314,4.31579 7.33558,1.84445 10.63204,-8.60803 1.19901,-3.80183 2.83974,-7.7735 3.64608,-8.82592 3.88461,-5.07018 13.26197,-3.79912 17.36737,2.35409 2.99423,4.48776 3.19731,13.29425 0.47179,20.45975 -1.67205,4.39589 -2.18065,4.84721 -5.80114,5.14772 -2.18263,0.18114 -3.96804,-0.15326 -3.96759,-0.74313 z M 60.80437,422.29004 c -0.347375,-1.39699 -0.386264,-3.18174 -0.08642,-3.96608 0.299855,-0.78437 7.071552,-6.39422 15.048233,-12.46637 7.976673,-6.07214 14.374372,-11.15851 14.217114,-11.30303 -0.157269,-0.14453 -7.4728,1.07116 -16.256734,2.70153 -16.256697,3.01737 -17.510577,2.94035 -17.548285,-1.07796 -0.01133,-1.20596 2.710848,-2.0718 10.898168,-3.4664 6.002285,-1.02239 14.943084,-2.58433 19.868464,-3.47096 4.925368,-0.88663 9.049764,-1.48871 9.165313,-1.33796 0.115559,0.15076 0.485518,2.07903 0.822145,4.28506 0.603324,3.9539 0.497601,4.09861 -7.42998,10.16931 -13.660495,10.46082 -18.561587,14.42999 -18.230258,14.76385 0.17519,0.17652 6.545213,-0.83594 14.15562,-2.24991 7.610403,-1.41397 14.196392,-2.57563 14.63553,-2.58144 0.43913,-0.006 0.79754,1.16186 0.79645,2.59486 -0.002,3.08351 0.10625,3.04491 -16.505258,5.86564 -7.027071,1.19324 -15.05844,2.59935 -17.847499,3.12469 -4.807802,0.9056 -5.103787,0.82334 -5.702593,-1.58483 z m 584.06301,-24.05309 c 10e-4,-1.4727 -0.37548,-2.67792 -0.83687,-2.67828 -0.46138,-3.5e-4 -6.5688,-0.72413 -13.57204,-1.60843 -16.37776,-2.06798 -16.4588,-2.06545 -16.46076,0.51435 -10e-4,1.58588 -0.71133,2.14156 -2.73478,2.14001 -2.09017,-0.001 -2.61125,-0.44294 -2.21492,-1.87603 0.28504,-1.03068 0.83358,-4.64506 1.219,-8.03197 0.58324,-5.12531 1.04497,-6.15776 2.75329,-6.15644 1.12889,8.5e-4 2.10734,0.60408 2.17432,1.34047 0.067,0.73641 0.18573,2.06175 0.26391,2.9452 0.11146,1.25979 3.40191,1.96287 15.25379,3.25931 l 15.11165,1.653 0.61163,-2.44384 c 0.38928,-1.55543 1.40905,-2.44323 2.80521,-2.44216 2.0723,10e-4 2.15193,0.40139 1.44007,7.23071 -0.88327,8.47379 -1.03676,8.83539 -3.74923,8.83332 -1.49434,-0.001 -2.06574,-0.74276 -2.06427,-2.67922 z M 55.110044,379.48474 c 0.0017,-2.30802 0.889766,-3.14628 5.326659,-5.02823 l 5.324559,-2.25845 0.0062,-8.21867 0.0062,-8.21867 -5.587806,-1.56211 c -4.790309,-1.33916 -5.635578,-1.97085 -5.922493,-4.42593 -0.184073,-1.57511 0.05647,-2.87138 0.534467,-2.88061 0.47803,-0.01 9.843683,2.76929 20.812547,6.17451 l 19.9434,6.19131 0.0096,3.84917 0.0096,3.84919 -19.434202,7.66511 c -10.68882,4.21581 -19.793499,7.65793 -20.232627,7.64914 -0.439129,-0.009 -0.797471,-1.26238 -0.796318,-2.78576 z m 26.091994,-13.23716 c 4.596747,-1.88481 6.842349,-3.29286 5.857921,-3.67305 -2.215858,-0.85581 -15.089252,-4.94131 -15.571214,-4.94168 -0.21648,-1.7e-4 -0.395601,2.65056 -0.398054,5.89049 -0.0031,4.02848 0.416237,5.8734 1.326291,5.83577 0.731915,-0.0303 4.68519,-1.43045 8.785056,-3.11153 z m 530.288322,-7.93295 c 0.31123,-8.68868 0.74316,-16.36253 0.95984,-17.05298 0.21667,-0.69046 1.35963,-1.00053 2.53988,-0.68902 1.81074,0.47787 2.19421,1.59447 2.45499,7.14835 l 0.30906,6.582 17.29902,0.30755 17.29902,0.30756 -0.002,3.28191 -0.002,3.2819 -17.56479,-0.78745 -17.56481,-0.78746 -0.19886,3.08842 c -0.10936,1.69865 -0.30348,4.05231 -0.43134,5.23037 -0.12787,1.17806 -0.28032,2.98535 -0.33881,4.01619 -0.0707,1.24644 -0.98022,1.87358 -2.71522,1.87226 l -2.60889,-0.002 z M 86.014531,337.29925 c -2.634473,-0.44962 -7.903569,-1.14131 -11.709104,-1.53706 -3.805537,-0.39574 -7.877131,-0.90304 -9.047999,-1.1273 -1.170856,-0.22424 -3.685733,-0.4458 -5.588617,-0.49233 -3.132153,-0.0766 -3.459555,-0.39508 -3.457306,-3.36337 l 0.0024,-3.27879 5.056198,0.67394 c 2.780907,0.37067 6.315072,0.91028 7.853699,1.19915 2.698481,0.50662 2.823082,0.30525 3.520444,-5.68924 0.397629,-3.41795 0.980291,-7.71999 1.294816,-9.5601 l 0.571867,-3.34566 -7.278581,-0.78493 c -4.003221,-0.43173 -7.5735,-0.9656 -7.933945,-1.18641 -0.360445,-0.22081 -0.424063,-1.61373 -0.141373,-3.09541 0.58152,-3.04797 -2.255616,-3.09719 25.816439,0.44794 14.038283,1.77285 14.370269,1.87522 14.368331,4.43029 -0.0021,2.28298 -0.475702,2.60992 -3.72794,2.57146 -2.049285,-0.0243 -6.39375,-0.41286 -9.654376,-0.86359 l -5.92842,-0.81954 -1.33466,8.72716 c -0.734059,4.79992 -1.027078,9.04079 -0.651171,9.42412 0.375918,0.38333 4.599109,1.18195 9.384889,1.77469 8.397972,1.04015 8.713052,1.18044 9.036011,4.02338 0.297621,2.61995 0.0032,2.93147 -2.663563,2.81738 -1.648997,-0.0706 -5.153654,-0.49616 -7.788122,-0.94578 z m 525.901789,-5.87077 c 0.002,-2.51371 1.31708,-4.07955 7.41691,-8.8305 4.07803,-3.17622 7.4336,-6.04442 7.45681,-6.37375 0.0232,-0.32932 -3.84453,-2.25534 -8.59501,-4.28003 -6.30188,-2.6859 -8.9006,-4.3798 -9.61134,-6.26488 -0.53576,-1.42098 -0.83832,-2.96818 -0.67235,-3.43819 0.16595,-0.47001 5.56954,1.55408 12.00795,4.49798 11.13774,5.09262 12.04226,5.32493 18.62635,4.78393 3.80608,-0.31274 7.94921,-0.77342 9.20698,-1.02374 1.85202,-0.36859 2.37322,0.1402 2.74116,2.67581 0.24987,1.722 0.0929,3.13065 -0.34884,3.13031 -0.44175,-3.3e-4 -4.51092,0.51534 -9.04261,1.14593 -8.04166,1.11903 -8.47546,1.33722 -18.07131,9.0901 -5.40751,4.36895 -10.12101,7.94334 -10.47442,7.94306 -0.35343,-2.7e-4 -0.64155,-1.37548 -0.64028,-3.05603 z M 87.393212,273.97568 c -3.800172,-1.1071 -3.977272,-1.70212 -2.304835,-7.74391 0.976125,-3.52639 1.474002,-4.02369 3.456518,-3.4525 1.273874,0.36702 3.659584,0.96327 5.301554,1.32498 1.846847,0.40683 2.783583,1.18567 2.456164,2.04215 -0.291096,0.76146 -0.851507,3.10538 -1.245355,5.20869 -0.769832,4.1113 -1.587464,4.39088 -7.664046,2.62059 z M 618.4774,273.17125 c -2.46815,-6.75695 -2.36893,-8.00866 0.68796,-8.67851 1.60356,-0.35138 3.95828,-0.93756 5.23271,-1.30263 1.98337,-0.56815 2.48049,-0.07 3.45129,3.45779 1.68164,6.11117 1.504,6.59823 -2.84891,7.81085 -5.38085,1.49899 -5.51487,1.47255 -6.52305,-1.2875 z m -47.18698,-30.3564 c -4.04344,-2.21168 -5.07991,-4.69694 -5.07426,-12.16722 0.004,-6.06624 0.17864,-6.52004 2.74851,-7.16687 1.5297,-0.38502 5.84012,0.15528 9.74214,1.22115 6.81361,1.8612 7.03552,1.85791 8.39868,-0.1246 0.77009,-1.11996 1.91491,-2.63837 2.54402,-3.37424 1.3809,-1.61519 9.39705,-1.75456 13.36728,-0.23241 4.91549,1.88456 10.84403,2.95271 12.0913,2.17848 0.69629,-0.43221 -2.92261,-3.46233 -8.67021,-7.25959 -10.8087,-7.14094 -19.82246,-14.74353 -18.75344,-15.81743 1.20348,-1.20898 10.92501,3.87892 18.35718,9.60749 3.12906,2.41182 5.19902,3.16711 8.45145,3.08381 5.11809,-0.1311 8.7991,-3.59725 7.13954,-6.7228 -0.80996,-1.52543 -2.04909,-1.78102 -6.75052,-1.3924 -5.83724,0.48251 -10.32103,-0.92021 -10.31928,-3.22831 7.4e-4,-0.9846 2.54546,-5.30988 6.11528,-10.39422 0.81758,-1.16443 3.95476,3.45205 4.14602,6.10101 0.11684,1.61839 0.2511,3.30405 0.29832,3.74589 0.1568,1.46681 6.92378,0.76763 12.86233,-1.32895 7.212,-2.54617 8.93009,-2.61084 10.74726,-0.40453 1.2232,1.48513 1.06196,2.02592 -1.13736,3.81489 -1.40944,1.14644 -3.92688,2.35788 -5.59432,2.69208 -3.19433,0.6402 -5.0871,3.07521 -5.08973,6.54781 -0.002,3.16203 -3.00426,4.99223 -8.9724,5.47036 -0.54125,0.0434 0.1,1.2416 1.42503,2.66276 3.11423,3.34022 2.55774,6.41984 -1.23923,6.85822 -1.5962,0.1843 -6.58077,-0.68331 -11.07684,-1.92801 -8.28026,-2.29232 -9.88677,-2.01307 -9.93941,1.72777 -0.009,0.67332 -0.73602,1.50109 -1.61455,1.8395 -2.2206,0.85536 -1.99537,3.20271 0.52811,5.50387 4.89678,4.46535 0.83798,7.89558 -6.06565,5.1263 -4.11727,-1.65159 -6.04275,-1.03961 -7.61244,2.4195 -1.40169,3.08887 -6.35478,3.5104 -11.05281,0.94069 z m 5.00292,-7.91235 c 0.6899,-1.12116 -3.51538,-3.80239 -4.46599,-2.84746 -0.70566,0.70889 1.71779,3.86267 2.96891,3.86363 0.47926,3.7e-4 1.15295,-0.45691 1.49708,-1.01617 z m -458.70133,2.6151 c -0.23352,-0.77785 -1.14799,-5.27061 -2.03215,-9.98392 -0.88417,-4.71331 -2.18239,-10.01602 -2.88493,-11.7838 l -1.27734,-3.21414 -1.42071,3.21207 c -0.78141,1.76664 -1.4443,5.81741 -1.47312,9.00173 -0.0408,4.5085 -0.65392,6.58182 -2.77071,9.36959 -2.73825,3.60618 -5.68852,4.71829 -5.938842,2.23865 -0.32925,-3.26143 0.378222,-12.41729 1.261992,-16.33259 0.5318,-2.35591 0.9804,-6.63944 0.99689,-9.51894 0.0316,-5.53131 0.0838,-5.45056 -12.166167,-18.87254 -4.156834,-4.55455 -5.199356,-8.03829 -3.051247,-10.19618 2.369763,-2.38056 3.198242,-2.04767 9.244783,3.7145 3.058507,2.91469 6.816481,5.78079 8.351041,6.36913 1.53457,0.58833 5.56524,4.59475 8.95705,8.90316 6.6525,8.45022 21.20157,25.22653 26.17503,30.18199 2.79939,2.78928 2.9354,3.25773 1.5552,5.35647 -2.77092,4.21349 -5.7713,3.51134 -11.41156,-2.67053 -5.49425,-6.02186 -5.98952,-5.93086 -6.58001,1.20908 -0.2447,2.95885 -0.81562,3.82029 -2.71031,4.08949 -1.32016,0.18757 -2.59136,-0.29538 -2.82489,-1.07322 z m 8.95878,-24.70248 c -1.39184,-2.30063 -2.10677,-5.39087 -2.10659,-9.10557 -3e-5,-4.18001 -0.3934,-5.62333 -1.53374,-5.62419 -0.84372,-6.6e-4 -1.83047,0.48056 -2.19278,1.06937 -1.14659,1.86332 -4.66976,1.15538 -5.91424,-1.18838 -0.94923,-1.78776 -0.70595,-3.79065 1.17255,-9.65306 2.48689,-7.76101 4.02365,-9.06818 9.70458,-8.25473 2.23604,0.32018 2.53607,0.98799 2.81033,6.25534 0.30338,5.82677 0.36039,5.91913 4.79585,7.7688 6.42983,2.68137 7.60379,2.40847 11.5055,-2.67465 1.92058,-2.50212 3.6805,-4.79015 3.91094,-5.08451 0.6714,-0.85765 4.49027,4.36489 4.48893,6.1389 -0.002,2.67312 -7.97643,9.92422 -10.9117,9.92197 -1.45095,-0.001 -4.40201,-1.20831 -6.55791,-2.68265 -5.1456,-3.51895 -6.01105,-3.40437 -4.86047,0.64353 0.5199,1.82908 1.2321,6.16739 1.58268,9.64068 0.59423,5.88735 0.48756,6.31496 -1.57483,6.31339 -1.35341,-0.001 -3.03013,-1.35366 -4.3191,-3.48424 z m 439.77961,-8.39796 c -3.31071,-3.55097 -1.72476,-6.14472 5.45262,-8.91755 5.34452,-2.06475 5.68661,-2.07964 6.5424,-0.28486 0.59843,1.25508 0.16807,3.5619 -1.27604,6.83967 -1.86384,4.23049 -2.62279,4.94552 -5.24703,4.94351 -1.86398,-0.001 -4.0114,-1.01422 -5.47195,-2.58077 z m 24.37169,-7.06876 c -1.6457,-1.65825 -1.90323,-2.63489 -1.09483,-4.15182 1.47934,-2.77595 11.43921,-9.00349 12.9222,-8.0798 2.17494,1.35468 0.35111,9.3163 -2.74749,11.99369 -3.45358,2.98414 -6.28092,3.05823 -9.07988,0.23793 z M 105.40431,182.50439 c -3.73907,-4.29109 -4.20408,-7.91291 -1.34921,-10.5083 4.79255,-4.35692 9.28005,-1.08795 8.1841,5.96178 -1.51936,9.77336 -2.00117,10.09385 -6.83489,4.54652 z m 439.25065,-4.71347 c -1.6071,-1.20977 -1.63104,-1.75697 -0.24594,-5.62321 0.84392,-2.35568 1.55633,-5.45148 1.58311,-6.87957 l 0.0487,-2.59654 2.62864,2.48832 c 3.12411,2.95734 5.23961,8.78091 4.28554,11.79727 -0.7901,2.49794 -5.4551,2.9553 -8.30004,0.81373 z M 174.24362,163.58324 c -0.95273,-0.73708 -2.96166,-4.47392 -4.46429,-8.30409 -1.50263,-3.83016 -4.64237,-9.50554 -6.97721,-12.61194 -2.33484,-3.10641 -4.24481,-6.1202 -4.24436,-6.69734 0.001,-1.73593 7.17868,-1.63922 8.99551,0.12122 0.55584,0.53858 1.31695,0.97947 1.69137,0.97976 1.5237,0.001 3.16881,-5.80198 2.56564,-9.05035 -0.50499,-2.71963 -0.0913,-4.12222 1.90275,-6.45095 3.29912,-3.85286 6.60276,-2.98661 8.2913,2.17409 0.66555,2.03413 1.53225,3.69644 1.92597,3.69402 0.39373,-0.003 0.82049,-4.50041 0.94837,-9.9955 0.43323,-18.617272 3.30762,-20.146072 14.85255,-7.89957 9.35889,9.92762 16.65074,22.25611 15.28945,25.85015 -1.04708,2.76444 -6.39235,6.4855 -10.95791,7.62821 -3.46087,0.86622 -3.79969,-0.51569 -0.79597,-3.24639 2.96133,-2.69217 2.66878,-5.77952 -1.08947,-11.49746 -2.73297,-4.15805 -9.33047,-10.46711 -10.94693,-10.46836 -0.911,-6.9e-4 -2.06345,8.02304 -1.92274,13.3867 0.18518,7.05874 -0.77925,8.28288 -6.71816,8.52723 -7.04396,0.28982 -7.94704,1.63059 -5.09045,7.55764 2.57181,5.3361 3.14524,14.25666 1.05166,16.35978 -1.6062,1.61353 -2.15736,1.60626 -4.30708,-0.0569 z m -19.35484,-2.50121 c -1.95649,-1.97142 -2.02047,-2.60929 -0.62991,-6.28058 0.84144,-2.22156 1.74797,-2.74602 4.74255,-2.74371 2.03623,0.001 4.90754,0.55647 6.38071,1.23314 2.64189,1.21351 2.65343,1.27356 0.84519,4.39811 -2.79929,4.83699 -8.27834,6.47659 -11.33854,3.39304 z m 361.0823,-4.13365 c -3.65856,-0.9649 -1.46703,-3.77553 3.96159,-5.08069 1.73794,-0.41785 5.72995,-1.98055 8.87115,-3.47266 5.97778,-2.83957 6.14808,-3.27014 3.76765,-9.5255 -0.57913,-1.52184 -0.32862,-1.74104 1.27888,-1.11901 1.09951,0.42546 4.02822,1.05495 6.50826,1.39889 4.21418,0.58443 4.89652,0.29288 10.43105,-4.45688 3.25705,-2.79521 5.92239,-5.71818 5.92298,-6.49547 0.002,-2.42795 2.17614,-2.90028 4.32607,-0.93976 2.62669,2.39526 2.59499,6.68542 -0.0747,10.11387 -2.44038,3.13393 -2.64895,4.28218 -0.77808,4.28361 0.74486,5.7e-4 3.13902,1.48342 5.32036,3.29521 2.98577,2.47998 3.96543,4.09574 3.96359,6.53722 -0.002,3.17883 -0.092,3.23317 -4.52651,2.74525 -2.48821,-0.27378 -7.30576,-1.07852 -10.70565,-1.78832 -5.58614,-1.16623 -6.61167,-1.08191 -10.64635,0.87543 -2.47948,1.20284 -8.72543,2.6521 -14.04671,3.25927 -10.04427,1.14607 -10.57445,1.16051 -13.57354,0.36954 z m -28.22427,-17.83465 c -1.16478,-1.28472 -2.87044,-3.83841 -3.79037,-5.67487 -1.13919,-2.27418 -2.70565,-3.54771 -4.91207,-3.99343 -3.26958,-0.66052 -4.67833,-3.92224 -1.69304,-3.91995 0.84918,6.5e-4 1.98684,-0.7936 2.52813,-1.76498 0.66519,-1.19373 1.77211,-1.55822 3.4152,-1.12458 2.50605,0.66139 8.78814,-1.42022 9.94122,-3.29408 0.35827,-0.58225 -0.23333,-3.8852 -1.31468,-7.33991 -2.30101,-7.35132 -3.15653,-7.68958 -12.37387,-4.89248 -5.0683,1.53802 -6.87651,2.7001 -8.74793,5.62201 -4.84236,7.56056 -6.00621,8.77227 -10.26427,10.68634 -3.2459,1.4591 -4.72319,1.65746 -5.77752,0.77577 -1.12704,-0.94252 -0.67595,-1.60967 2.20727,-3.26452 3.45928,-1.98549 7.92657,-7.83308 6.82899,-8.93903 -0.2863,-0.28848 -2.12975,0.12983 -4.09655,0.92956 -3.6193,1.47168 -7.30196,1.36449 -7.30076,-0.21251 6.8e-4,-0.88457 9.67699,-5.40121 11.5683,-5.39975 1.09693,8.3e-4 5.47275,-5.09005 5.47372,-6.36821 3.1e-4,-0.40053 -1.67553,-1.533947 -3.72408,-2.518705 -2.43784,-1.171904 -3.72407,-2.536532 -3.723,-3.949915 0.002,-2.299122 0.4961,-2.465253 6.50829,-2.186994 3.37379,0.156139 4.1261,-0.300408 6.13783,-3.724854 2.22029,-3.779445 4.9151,-4.59834 4.93655,-1.500127 0.006,0.954736 0.8944,1.393772 2.39438,1.184081 1.90092,-0.265739 2.38349,0.189223 2.38192,2.245687 -0.002,2.521998 -2.89321,6.121903 -4.91562,6.120361 -0.55955,-4.29e-4 -1.86742,1.444486 -2.90637,3.21093 -1.82399,3.101196 -1.82031,3.211756 0.1071,3.213236 1.09786,8.4e-4 4.44509,-0.72811 7.43827,-1.61992 4.06007,-1.20968 5.98561,-2.50023 7.58203,-5.081692 1.1769,-1.903122 3.99206,-5.270169 6.25588,-7.482322 3.89789,-3.808889 4.38121,-3.985302 9.11841,-3.328339 3.22506,0.44725 5.00195,1.22131 5.00123,2.17866 -10e-4,1.879452 -8.36427,11.070124 -10.07181,11.068818 -1.63282,-0.0011 -5.90855,4.539555 -5.90987,6.276245 -5.6e-4,0.72764 0.67551,2.64164 1.50236,4.25334 0.82686,1.61171 1.83508,4.71679 2.2405,6.90019 0.66638,3.58888 0.3681,4.34053 -3.10838,7.83285 -2.11502,2.12467 -3.84572,4.14525 -3.84597,4.49018 -2.7e-4,0.34494 0.97719,1.67578 2.17212,2.95743 1.84101,1.97459 1.98499,2.74377 0.94337,5.03915 -0.67608,1.48989 -2.32273,3.20912 -3.65919,3.82052 -1.99495,0.91266 -2.80906,0.6935 -4.54772,-1.22419 z m 18.30521,-49.510779 c 0.32419,-0.848038 0.27606,-1.542123 -0.10696,-1.542413 -1.05103,-8.03e-4 -5.62763,4.522061 -5.62841,5.562342 -10e-4,1.328652 5.04191,-2.20594 5.73537,-4.019929 z M 269.63216,123.80488 c -1.8562,-0.81404 -3.90777,-2.48366 -4.55907,-3.71025 -1.42688,-2.68733 -3.47651,-2.82583 -7.04676,-0.47617 -3.6115,2.3768 -6.75203,0.84208 -10.99548,-5.37324 -3.84848,-5.63684 -4.04706,-7.41216 -1.15412,-10.31828 2.8781,-2.89122 4.1276,-2.69527 5.6397,0.88443 0.70237,1.66274 2.63287,4.64045 4.28999,6.61713 2.40644,2.87048 3.20647,3.28685 3.97427,2.06836 1.35608,-2.15212 1.2218,-3.94822 -0.33456,-4.47505 -0.73171,-0.24768 -1.32912,-2.0957 -1.3276,-4.10672 0.002,-3.17323 -0.31269,-3.61254 -2.3845,-3.32454 -3.02861,0.421 -2.26197,-2.157144 1.34788,-4.532878 5.48152,-3.607499 18.79717,-4.458065 20.0048,-1.277841 0.25263,0.665252 -1.12736,4.614269 -3.06662,8.775609 -1.93926,4.16133 -3.8332,8.7938 -4.20875,10.29438 -1.00736,4.02511 2.04061,4.72419 7.62536,1.74893 3.57074,-1.90232 4.84011,-2.1478 5.84904,-1.13118 1.7789,1.79247 -0.73851,6.38612 -4.59808,8.39038 -3.55684,1.84707 -4.73857,1.84014 -9.0555,-0.0531 z m -3.81402,-23.7229 c -0.35348,-0.356176 -1.27165,-0.394927 -2.04036,-0.08611 -0.8495,0.34126 -0.59744,0.59525 0.64269,0.64758 1.12219,0.0473 1.75114,-0.20528 1.39767,-0.56146 z m 145.07213,14.41425 c 0.47094,-1.91415 1.7984,-7.09435 2.9499,-11.51157 3.11566,-11.951853 3.72638,-16.062929 2.38638,-16.063957 -0.63537,-4.93e-4 -3.03399,0.961623 -5.33029,2.138014 -8.92123,4.570375 -11.76242,1.035858 -6.90501,-8.589974 2.14486,-4.250414 2.67621,-6.510958 2.17055,-9.23423 -0.46468,-2.502573 -0.002,-5.121276 1.51203,-8.557734 1.19988,-2.723433 2.18228,-5.864711 2.18313,-6.980619 0.002,-2.32111 4.37402,-4.71862 6.85466,-3.758725 2.45053,0.94824 2.04542,3.603498 -1.51695,9.942827 -1.84794,3.288451 -2.74121,5.92848 -2.13392,6.306738 1.61245,1.004321 1.23336,5.659192 -0.70257,8.626838 -2.20334,3.37759 -1.34006,4.26019 2.95754,3.023709 3.23574,-0.930964 3.50847,-1.450119 6.18255,-11.768813 3.10379,-11.976847 5.45941,-16.48456 8.61317,-16.482142 2.56102,0.0019 2.5623,-0.800661 -0.0203,12.779438 -1.16805,6.141851 -1.93161,11.360583 -1.69681,11.597176 1.17693,1.185894 5.02469,-2.39386 5.58368,-5.194782 0.88273,-4.422965 2.95019,-3.297996 3.328,1.810854 0.29804,4.03013 0.0588,4.386907 -5.32886,7.94557 l -5.64094,3.725966 -2.70787,10.708462 c -1.48934,5.889644 -3.92473,12.635414 -5.41199,14.990594 -1.48725,2.35517 -3.014,5.12535 -3.39276,6.15595 -0.37877,1.0306 -1.61136,1.87311 -2.73909,1.87225 -1.77872,-0.001 -1.93697,-0.4628 -1.19419,-3.48184 z M 317.74162,101.7914 c 2.80219,-1.36708 5.30235,-3.805993 7.29054,-7.111937 2.8177,-4.685224 2.89919,-5.124688 1.1844,-6.38822 -1.01281,-0.746277 -3.84702,-1.317909 -6.29827,-1.27029 -2.45124,0.04755 -5.53402,-0.258295 -6.85061,-0.679829 -2.24047,-0.717317 -2.28158,-0.890966 -0.64181,-2.711135 0.96358,-1.069586 4.03979,-2.932825 6.83603,-4.140521 6.39248,-2.760912 7.85829,-4.45925 6.70632,-7.770191 -0.4862,-1.397454 -0.82498,-3.263746 -0.75284,-4.14731 0.21418,-2.623326 -1.65861,-4.285484 -4.8313,-4.287916 -5.03381,-0.0039 -6.34335,-1.019772 -6.3404,-4.918789 0.002,-2.906622 0.49559,-3.737735 2.52162,-4.247684 1.38538,-0.348691 3.18197,-0.515576 3.99242,-0.370856 0.81044,0.144722 3.79131,-0.119043 6.62414,-0.586131 7.94658,-1.310296 9.14495,0.589203 7.56414,11.989792 -0.92752,6.689162 0.359,8.855486 5.26127,8.859244 4.36326,0.0033 8.08875,2.687723 8.08638,5.826581 -0.002,2.860101 -1.37366,4.18267 -5.83395,5.62587 -2.56303,0.829317 -3.48003,2.03423 -4.79533,6.301005 -0.89447,2.901589 -2.14018,6.144823 -2.76826,7.207189 -1.61206,2.726718 -8.48825,4.925348 -15.36405,4.912588 l -5.85513,-0.0109 4.26469,-2.0806 z m -82.11936,-2.338051 c -3.01958,-1.473886 -3.84988,-7.072312 -2.35605,-15.886081 1.67365,-9.87465 2.35582,-10.706935 4.76182,-5.809746 1.10565,2.250434 2.53537,4.25432 3.17713,4.453076 0.64177,0.198766 3.21243,-1.632828 5.71258,-4.070203 4.12884,-4.025173 4.48836,-4.788976 3.9202,-8.328535 -0.34404,-2.143323 -1.31319,-4.381025 -2.15366,-4.972687 -0.84047,-0.591652 -2.40754,-1.66547 -3.48235,-2.386268 -1.82512,-1.223941 -1.71402,-1.521673 1.68177,-4.506837 5.07276,-4.459329 8.88017,-5.650345 11.70009,-3.659944 2.96705,2.094246 2.81776,4.811425 -0.43289,7.87916 -2.87105,2.709502 -3.55823,7.217756 -1.23709,8.115921 0.78651,0.304354 3.91868,-0.43134 6.96034,-1.634863 6.42892,-2.543771 10.63239,-2.772849 13.40415,-0.730485 3.13031,2.306556 1.3545,5.321709 -2.61569,4.441205 -4.33229,-0.960811 -14.56311,2.124418 -16.00274,4.825817 -1.55229,2.912813 0.33677,6.20351 4.02949,7.019288 5.12701,1.132638 5.72059,1.496443 5.36832,3.290178 -0.48081,2.448063 -4.18298,4.587737 -4.83081,2.791978 -0.72881,-2.020274 -2.79296,-1.614784 -5.00787,0.983772 -1.82133,2.136826 -2.08685,2.179947 -3.28192,0.53301 -0.71514,-0.98554 -1.94209,-1.792396 -2.72653,-1.792996 -1.10932,-8.46e-4 -1.14215,-0.286496 -0.1478,-1.285371 1.47431,-1.481041 1.71581,-5.814564 0.37072,-6.652352 -0.93331,-0.581321 -6.28172,5.541563 -8.50391,9.735303 -0.68152,1.286185 -1.23988,3.31719 -1.24078,4.513342 -9.1e-4,1.196162 -0.92865,2.673059 -2.06165,3.281995 -2.37786,1.278004 -2.06513,1.287224 -5.00487,-0.147677 z m 147.58987,-3.356551 c 0.003,-3.675746 -0.0853,-3.759888 -2.68837,-2.569038 -2.02902,0.928239 -2.99241,0.927714 -3.91521,-0.0021 -0.9228,-0.929835 0.002,-2.819879 3.76069,-7.681088 5.79651,-7.497896 6.20961,-9.130293 2.05839,-8.133894 -7.50344,1.801018 -12.59528,1.903116 -13.93263,0.279392 -1.69114,-2.053295 -1.28078,-2.286139 8.60671,-4.883595 8.97031,-2.356508 12.1205,-3.74988 12.74784,-5.638532 0.47117,-1.418538 9.28013,-4.297127 10.61177,-3.467711 1.68722,1.050904 0.83809,3.497567 -2.31214,6.662149 -2.37592,2.386767 -3.87103,5.731108 -5.90032,13.198258 -1.4949,5.500799 -3.07201,11.206127 -3.5047,12.678492 -0.48051,1.635155 -1.71067,2.809522 -3.1608,3.017467 -2.07355,0.297335 -2.37376,-0.140683 -2.37123,-3.459779 z m 8.2527,-38.765531 c -0.42392,-0.42715 -0.7696,-2.327035 -0.76816,-4.221963 0.002,-2.904748 0.46023,-3.532966 2.91927,-4.003951 4.2121,-0.806743 6.6642,0.900607 6.66137,4.638163 -0.002,2.304647 -0.5133,3.179091 -1.8654,3.188669 -1.02466,0.0067 -2.8335,0.274759 -4.01967,0.594459 -1.18615,0.319699 -2.50348,0.231773 -2.92741,-0.195377 z m 228.2574,509.577273 c 1.06066,-1.17734 1.68895,-2.14081 1.3962,-2.14103 -0.29276,-2.3e-4 -1.4001,0.96287 -2.46077,2.14022 -1.06066,1.17734 -1.68894,2.14081 -1.39618,2.14103 0.29276,2.3e-4 1.40009,-0.96286 2.46075,-2.14022 z M 78.442624,551.55836 C 51.366657,513.44236 32.457389,470.01286 23.287475,424.88189 20.59682,411.63943 19.5807,405.20073 17.316379,387.04528 15.987817,376.3928 15.665273,346.3587 16.724005,331.88559 c 4.799303,-65.60773 25.847517,-124.17964 63.462612,-176.6006 8.59309,-11.97545 7.488227,-11.82887 -1.843327,0.24455 -33.685068,43.58274 -55.114787,92.25219 -64.157522,145.70934 -9.9417758,58.77192 -3.348133,118.86118 19.152718,174.54275 9.910494,24.52493 25.094233,51.54657 40.799268,72.60815 6.080734,8.1547 11.678841,14.89627 12.370087,14.8968 0.146379,1.1e-4 -3.482969,-5.27759 -8.065217,-11.72822 z M 634.2312,548.47158 c 9.0119,-11.78191 23.11307,-34.70293 30.70205,-49.90526 31.99511,-64.093 41.63853,-137.31428 27.40342,-208.07067 -8.1224,-40.37278 -24.77807,-80.29359 -48.19059,-115.50459 -7.60488,-11.43728 -20.97911,-29.00377 -22.08264,-29.00462 -0.19394,-1.5e-4 3.03085,4.70157 7.16619,10.44826 17.89965,24.87428 32.19047,52.47948 44.79117,86.52188 6.01771,16.25762 13.28909,48.32636 16.27407,71.77304 2.15349,16.91548 2.41998,60.11098 0.46912,76.04514 -7.61914,62.23166 -27.27706,113.90573 -61.92238,162.77315 -8.11106,11.44071 -5.01024,8.52009 5.38959,-5.07633 z M 89.888179,142.36527 c 1.060651,-1.17735 1.688939,-2.14081 1.396182,-2.14104 -0.292756,-2.2e-4 -1.4001,0.96288 -2.460751,2.14022 -1.060663,1.17735 -1.68895,2.14081 -1.396194,2.14104 0.292757,2.2e-4 1.400101,-0.96288 2.460763,-2.14022 z M 621.639,144.54553 c 1.5e-4,-0.20324 -1.0769,-1.28851 -2.39345,-2.4117 l -2.39374,-2.04219 2.02617,2.41144 c 1.90409,2.26613 2.76037,2.89956 2.76102,2.04245 z"
     id="path3715"
     inkscape:connector-curvature="0" />
</svg>
